<svg xml:space="preserve" viewBox="0 0 100 100" y="0" x="0" xmlns="http://www.w3.org/2000/svg" id="Layer_1" version="1.1" style="height: 100%; width: 100%; background: transparent;" width="200px" height="200px">
<g class="ldl-scale" style="transform-origin: 50% 50%; transform: rotate(0deg) scale(0.8, 0.8);">
  <g class="ldl-ani">
    <g class="ldl-layer">
      <g class="ldl-ani" style="transform-origin: 50px 50px; animation: 1.11111s linear -0.740741s infinite normal forwards running static-3f50ca5b-12eb-473a-8113-d0a2fae5f5da;">
        <path fill="transparent" d="M77.48 28.757L61.231 12.508c-1.191-1.166-2.28-1.727-3.276-1.732H22.589c-.943 0-1.711.762-1.711 1.698v75.051c0 .936.768 1.698 1.711 1.698h54.822c.943 0 1.711-.762 1.711-1.698V32.033c.009-.998-.508-2.085-1.642-3.276z" style="fill: transparent;"></path>
      </g>
    </g>
    <g class="ldl-layer">
      <g class="ldl-ani" style="transform-origin: 50px 50px; animation: 1.11111s linear -0.925926s infinite normal forwards running static-3f50ca5b-12eb-473a-8113-d0a2fae5f5da;">
        <path fill="#40a9ff" d="M62.414 28.757H77.48L61.231 12.508v15.066c0 .652.531 1.183 1.183 1.183z" style="fill: #40a9ff;"></path>
      </g>
    </g>
    <g class="ldl-layer">
      <g class="ldl-ani" style="transform-origin: 50px 50px; animation: 1.11111s linear -1.11111s infinite normal forwards running static-3f50ca5b-12eb-473a-8113-d0a2fae5f5da;">
        <path fill="#40a9ff" d="M80.461 26.424L62.256 8.286a2.676 2.676 0 0 0-1.902-.786H22.589c-2.75 0-4.987 2.232-4.987 4.975v75.051c0 2.743 2.237 4.975 4.987 4.975h54.822c2.75 0 4.987-2.232 4.987-4.975V31.085a6.536 6.536 0 0 0-1.937-4.661zm-19.23-13.916L77.48 28.757H62.414a1.185 1.185 0 0 1-1.183-1.183V12.508zm17.891 75.017c0 .936-.767 1.698-1.711 1.698H22.589a1.707 1.707 0 0 1-1.711-1.698v-75.05c0-.936.768-1.698 1.711-1.698h35.366v16.798c0 2.459 2 4.459 4.459 4.459h16.708v55.491zM61.261 53.548l11.103 14.327c.292.377.451.84.451 1.317v14.405H26.368v-7.84c0-.452.142-.892.406-1.258l7.356-10.196a2.356 2.356 0 0 1 3.584-.279l5.971 6.033 13.91-16.581a2.357 2.357 0 0 1 3.666.072zM29.83 50a7.199 7.199 0 1 1 14.398 0 7.199 7.199 0 0 1-14.398 0z" style="fill: #40a9ff;"></path>
      </g>
    </g>
  </g>
</g>
</svg>