<svg xml:space="preserve" viewBox="0 0 100 100" y="0" x="0" xmlns="http://www.w3.org/2000/svg" id="圖層_1" version="1.1" style="height: 100%; width: 100%; background: rgb(255, 255, 255);" width="200px" height="200px"><g class="ldl-scale" style="transform-origin: 50% 50%; transform: rotate(0deg) scale(0.8, 0.8);"><g class="ldl-ani"><g class="ldl-layer"><g class="ldl-ani" style="transform-origin: 50px 50px; animation: 1.11111s linear -0.740741s infinite normal forwards running static-38870e18-1089-4f16-b83c-8db5da747d88;"><path stroke-miterlimit="10" stroke-width="4" stroke="#333" fill="#e0e0e0" d="M83.688 79.629H16.312a4.558 4.558 0 0 1-4.558-4.558V24.929a4.558 4.558 0 0 1 4.558-4.558h67.376a4.558 4.558 0 0 1 4.558 4.558v50.143a4.559 4.559 0 0 1-4.558 4.557z" style="fill: rgb(224, 224, 224); stroke: rgb(51, 51, 51);"></path></g></g><g class="ldl-layer"><g class="ldl-ani" style="transform-origin: 50px 50px; animation: 1.11111s linear -0.925926s infinite normal forwards running static-38870e18-1089-4f16-b83c-8db5da747d88;"><path d="M18 27h64v46H18z" fill="#fff" style="fill: rgb(255, 255, 255);"></path></g></g><g class="ldl-layer"><g class="ldl-ani" style="transform-origin: 50px 50px; animation: 1.11111s linear -1.11111s infinite normal forwards running static-38870e18-1089-4f16-b83c-8db5da747d88;"><path fill="#666" d="M80.823 63.082L69.825 45.5a3.588 3.588 0 0 0-2.849-1.696 3.59 3.59 0 0 0-3.037 1.329l-7.459 9.159-12.067-16.235a3.6 3.6 0 0 0-2.845-1.462c-1.164-.046-2.189.475-2.897 1.359L19.694 61.679A7.763 7.763 0 0 0 18 66.508v6.412h64v-5.738a7.721 7.721 0 0 0-1.177-4.1z" style="fill: rgb(102, 102, 102);"></path></g></g></g></g></svg>